<svg xmlns="http://www.w3.org/2000/svg" xmlns:xlink="http://www.w3.org/1999/xlink" viewBox="0 0 792 142"><defs><style>.cls-1{fill:none;}.cls-2{isolation:isolate;}.cls-3{clip-path:url(#clip-path);}.cls-4{fill:#fff;}.cls-5{clip-path:url(#clip-path-3);}.cls-6{fill:url(#linear-gradient);}.cls-7{clip-path:url(#clip-path-4);}.cls-8{fill:url(#linear-gradient-2);}.cls-9{clip-path:url(#clip-path-5);}.cls-10{fill:url(#linear-gradient-3);}.cls-11{clip-path:url(#clip-path-6);}.cls-12{fill:url(#linear-gradient-4);}.cls-13{opacity:0.10001;mix-blend-mode:multiply;}.cls-14{clip-path:url(#clip-path-8);}.cls-15{fill:#010101;}</style><clipPath id="clip-path"><rect class="cls-1" width="792" height="142"/></clipPath><clipPath id="clip-path-3"><rect class="cls-1" x="13.373" y="28.247" width="94.587" height="94.587" rx="21.027"/></clipPath><linearGradient id="linear-gradient" y1="142" x2="1" y2="142" gradientTransform="matrix(102.91026, 0, 0, -102.91026, 9.21102, 14688.79673)" gradientUnits="userSpaceOnUse"><stop offset="0" stop-color="#0097dc"/><stop offset="0.43526" stop-color="#0073a8"/><stop offset="0.80545" stop-color="#005882"/><stop offset="1" stop-color="#004e74"/></linearGradient><clipPath id="clip-path-4"><polygon class="cls-1" points="72.841 44.041 51.168 75.54 70.165 75.54 92.104 44.041 72.841 44.041"/></clipPath><linearGradient id="linear-gradient-2" x1="0.00001" y1="141.99999" x2="0.99999" y2="141.99999" gradientTransform="matrix(-47.74824, 0, 0, 47.74824, 95.50957, -6720.45935)" gradientUnits="userSpaceOnUse"><stop offset="0" stop-color="#a6ce39"/><stop offset="0.06472" stop-color="#a6ce39"/><stop offset="0.97178" stop-color="#00b04c"/><stop offset="1" stop-color="#00b04c"/></linearGradient><clipPath id="clip-path-5"><polygon class="cls-1" points="51.168 75.54 72.841 107.04 92.104 107.04 70.165 75.54 51.168 75.54"/></clipPath><linearGradient id="linear-gradient-3" x1="0" y1="141.99673" x2="1" y2="141.99673" gradientTransform="matrix(0, -32.64645, -32.64645, 0, 4707.32514, 103.65336)" xlink:href="#linear-gradient-2"/><clipPath id="clip-path-6"><polygon class="cls-1" points="29.227 44.041 60.666 89.346 70.165 75.54 48.492 44.041 29.227 44.041"/></clipPath><linearGradient id="linear-gradient-4" y1="142" x2="1" y2="142" gradientTransform="matrix(30.11772, 0, 0, -30.11772, 35.6744, 4343.40906)" gradientUnits="userSpaceOnUse"><stop offset="0" stop-color="#fff"/><stop offset="0.06472" stop-color="#fff"/><stop offset="0.97178" stop-color="#d1d3d4"/><stop offset="1" stop-color="#d1d3d4"/></linearGradient><clipPath id="clip-path-8"><rect class="cls-1" x="48.8564" y="61.735" width="11.8098" height="13.8056"/></clipPath></defs><title>AvidXchange-PrimaryMark4Color</title><g class="cls-2"><g id="Layer_1" data-name="Layer 1"><g class="cls-3"><g class="cls-3"><path class="cls-4" d="M148.51529,42.48241a35.59875,35.59875,0,0,1,12.153,1.805,19.40267,19.40267,0,0,1,7.883,5.054,18.9474,18.9474,0,0,1,4.21,7.882,38.54033,38.54033,0,0,1,1.264,10.167v38.143q-3.37051.723-10.169,1.745a103.94477,103.94477,0,0,1-15.341,1.024,46.07926,46.07926,0,0,1-10.347-1.084,21.70815,21.70815,0,0,1-8-3.49,16.41462,16.41462,0,0,1-5.175-6.256,21.68667,21.68667,0,0,1-1.865-9.507,18.34614,18.34614,0,0,1,2.106-9.145,17.288,17.288,0,0,1,5.715-6.076,24.74535,24.74535,0,0,1,8.361-3.369,47.13052,47.13052,0,0,1,9.928-1.023,44.98979,44.98979,0,0,1,5.054.301,47.00772,47.00772,0,0,1,5.655,1.023v-2.406a18.92345,18.92345,0,0,0-.602-4.813,10.03077,10.03077,0,0,0-2.105-4.031,9.92154,9.92154,0,0,0-3.971-2.708,17.23876,17.23876,0,0,0-6.198-.962,54.91773,54.91773,0,0,0-9.265.722,40.46422,40.46422,0,0,0-6.857,1.684l-1.804-11.792a57.38947,57.38947,0,0,1,8.059-1.925,63.19548,63.19548,0,0,1,11.311-.963m1.204,54.267a54.14161,54.14161,0,0,0,10.228-.722V79.9034a28.75912,28.75912,0,0,0-3.49-.722,32.5146,32.5146,0,0,0-5.053-.361,33.53758,33.53758,0,0,0-4.873.361,15.251,15.251,0,0,0-4.454,1.324,8.0877,8.0877,0,0,0-3.188,2.708,7.55712,7.55712,0,0,0-1.204,4.391q0,5.1765,3.25,7.16,3.24751,1.986,8.784,1.985"/><path class="cls-4" d="M201.67149,106.9779q-6.0405-12.393-12.384-28.458a359.95322,359.95322,0,0,1-11.539-34.473h15.529q1.326,5.29649,3.079,11.371,1.75048,6.078,3.746,12.152,1.9935,6.0795,4.107,11.793,2.11648,5.715,3.927,10.287,1.8105-4.5705,3.866-10.287,2.052-5.715,4.049-11.793,1.9905-6.075,3.805-12.152,1.8105-6.075,3.141-11.371h15.045a359.956,359.956,0,0,1-11.539,34.473q-6.3435,16.0635-12.384,28.458Z"/><path class="cls-4" d="M261.38,28.253a8.35132,8.35132,0,0,1-2.648,6.498,8.9945,8.9945,0,0,1-6.258,2.406,9.13957,9.13957,0,0,1-6.376-2.406,8.34456,8.34456,0,0,1-2.648-6.498,8.49754,8.49754,0,0,1,2.648-6.619,9.1486,9.1486,0,0,1,6.376-2.406,9.00352,9.00352,0,0,1,6.258,2.406,8.50436,8.50436,0,0,1,2.648,6.619m-1.566,78.725H245.255V44.047h14.559Z"/><path class="cls-4" d="M325.51187,105.0534a86.33431,86.33431,0,0,1-10.89,2.406,84.57743,84.57743,0,0,1-13.776,1.083,36.73215,36.73215,0,0,1-13.355-2.287,27.77591,27.77591,0,0,1-10.047-6.558,28.83924,28.83924,0,0,1-6.378-10.347,39.455,39.455,0,0,1-2.225-13.658,46.02972,46.02972,0,0,1,1.863-13.536,29.64075,29.64075,0,0,1,5.476-10.409,24.39649,24.39649,0,0,1,8.785-6.678,28.53391,28.53391,0,0,1,11.91-2.346,27.21154,27.21154,0,0,1,8.063,1.083,36.19715,36.19715,0,0,1,6.017,2.406V14.8074l14.557-2.407Zm-41.751-29.722q0,9.6285,4.573,15.102,4.5705,5.475,12.634,5.474a49.87827,49.87827,0,0,0,5.955-.301,39.79649,39.79649,0,0,0,4.032-.662V58.8474a22.68477,22.68477,0,0,0-5.115-2.467,20.01688,20.01688,0,0,0-6.798-1.143q-7.94247,0-11.612,5.414-3.67048,5.415-3.669,14.68"/><path class="cls-4" d="M364.2374,63.3153l13.375-19.268h15.282l-21.131,30.143q6.621,8.316,12.696,16.81a138.00978,138.00978,0,0,1,9.998,15.978h-15.855a48.68964,48.68964,0,0,0-2.83-4.865q-1.73547-2.6505-3.707-5.519-1.974-2.868-4.122-5.685-2.154-2.814-4.183-5.303a119.74224,119.74224,0,0,0-8.276,10.85q-4.04851,5.9415-6.705,10.522h-14.847a74.97516,74.97516,0,0,1,4.382-7.636q2.5995-4.0095,5.57-8.197,2.97153-4.185,6.125-8.374,3.156-4.185,6.252-7.963l-21.365-30.761h16.003Z"/><path class="cls-4" d="M396.02261,75.5717a38.58514,38.58514,0,0,1,2.166-13.055,30.9987,30.9987,0,0,1,6.195-10.528,28.43394,28.43394,0,0,1,9.807-6.979,32.10044,32.10044,0,0,1,12.996-2.527,44.06634,44.06634,0,0,1,16.846,3.249l-3.129,11.913a33.06307,33.06307,0,0,0-5.716-1.806,30.72587,30.72587,0,0,0-6.797-.722q-8.547,0-12.995,5.355-4.452,5.3535-4.453,15.1,0,9.387,4.211,14.861,4.212,5.4765,14.2,5.475a37.28974,37.28974,0,0,0,7.339-.723,34.41755,34.41755,0,0,0,6.258-1.804l2.044,12.033a30.27168,30.27168,0,0,1-7.278,2.166,51.90093,51.90093,0,0,1-10.048.963,36.497,36.497,0,0,1-14.019-2.468,26.55386,26.55386,0,0,1-9.866-6.858,28.38086,28.38086,0,0,1-5.836-10.468,43.36525,43.36525,0,0,1-1.925-13.177"/><path class="cls-4" d="M453.89609,106.9779v-92.17l14.561-2.407v32.369a39.00444,39.00444,0,0,1,5.593-1.445,34.1179,34.1179,0,0,1,6.32-.602,32.55775,32.55775,0,0,1,12.574,2.106,19.81578,19.81578,0,0,1,7.999,5.896,22.973,22.973,0,0,1,4.271,9.085,50.87811,50.87811,0,0,1,1.263,11.791v35.377h-14.557v-33.09a48.00617,48.00617,0,0,0-.661-8.604,15.2858,15.2858,0,0,0-2.167-5.775,8.70454,8.70454,0,0,0-4.031-3.249,16.78627,16.78627,0,0,0-6.257-1.022,30.00538,30.00538,0,0,0-5.895.601,41.06837,41.06837,0,0,0-4.452,1.083v50.056Z"/><path class="cls-4" d="M540.04657,42.48241a35.60271,35.60271,0,0,1,12.153,1.805,19.40584,19.40584,0,0,1,7.882,5.054,18.93847,18.93847,0,0,1,4.211,7.882,38.542,38.542,0,0,1,1.264,10.167v38.143q-3.369.723-10.168,1.745a103.96833,103.96833,0,0,1-15.342,1.024,46.08771,46.08771,0,0,1-10.348-1.084,21.7204,21.7204,0,0,1-8.001-3.49,16.42342,16.42342,0,0,1-5.175-6.256,21.68667,21.68667,0,0,1-1.865-9.507,18.34582,18.34582,0,0,1,2.106-9.145,17.28776,17.28776,0,0,1,5.715-6.076,24.7732,24.7732,0,0,1,8.363-3.369,47.12431,47.12431,0,0,1,9.928-1.023,44.95876,44.95876,0,0,1,5.053.301,46.98591,46.98591,0,0,1,5.656,1.023v-2.406a18.92434,18.92434,0,0,0-.602-4.813,10.04332,10.04332,0,0,0-2.105-4.031,9.92175,9.92175,0,0,0-3.971-2.708,17.23891,17.23891,0,0,0-6.198-.962,54.90929,54.90929,0,0,0-9.265.722,40.54109,40.54109,0,0,0-6.859,1.684l-1.804-11.792a57.39409,57.39409,0,0,1,8.061-1.925,63.18639,63.18639,0,0,1,11.311-.963m1.204,54.267a54.14147,54.14147,0,0,0,10.228-.722V79.9034a28.74059,28.74059,0,0,0-3.491-.722,32.50178,32.50178,0,0,0-5.052-.361,33.52826,33.52826,0,0,0-4.87305.361,15.26672,15.26672,0,0,0-4.455,1.324,8.09141,8.09141,0,0,0-3.187,2.708,7.55691,7.55691,0,0,0-1.204,4.391q0,5.1765,3.25,7.16,3.24756,1.986,8.78406,1.985"/><path class="cls-4" d="M576.14423,46.0922a97.96059,97.96059,0,0,1,10.949-2.286,94.4217,94.4217,0,0,1,14.922-1.083,34.32656,34.32656,0,0,1,12.874,2.106,20.08431,20.08431,0,0,1,8.242,5.895,22.51217,22.51217,0,0,1,4.332,9.146,51.03236,51.03236,0,0,1,1.264,11.731v35.377h-14.559v-33.09a48.00919,48.00919,0,0,0-.661-8.604,15.262,15.262,0,0,0-2.168-5.775,8.65719,8.65719,0,0,0-4.09-3.249,17.24669,17.24669,0,0,0-6.316-1.022,48.593,48.593,0,0,0-5.77594.36q-3.01053.36148-4.452.602v50.778h-14.561Z"/><path class="cls-4" d="M690.69116,100.6001q0,15.0405-7.64,22.02-7.644,6.978-23.402,6.979a64.94929,64.94929,0,0,1-11.252-.962,63.23578,63.23578,0,0,1-9.926-2.527l2.648-12.395a45.11382,45.11382,0,0,0,8.482,2.528,51.88276,51.88276,0,0,0,10.288.962q8.784,0,12.515-3.61,3.72447-3.609,3.728-10.708v-2.407a37.76375,37.76375,0,0,1-5.714,2.166,27.85645,27.85645,0,0,1-8.122,1.083,30.34659,30.34659,0,0,1-11.01-1.925,23.05431,23.05431,0,0,1-8.54394-5.655,25.8671,25.8671,0,0,1-5.535-9.326,38.63159,38.63159,0,0,1-1.984-12.935,36.58989,36.58989,0,0,1,2.106-12.634,27.00919,27.00919,0,0,1,6.136-9.867,28.04046,28.04046,0,0,1,9.807-6.377,35.4241,35.4241,0,0,1,13.114-2.287,80.464,80.464,0,0,1,13.477,1.083q6.37647,1.083,10.828,2.286Zm-40.548-26.712q0,9.2655,4.03094,13.536a13.6602,13.6602,0,0,0,10.408,4.272,21.79005,21.79005,0,0,0,6.558-.962,18.72736,18.72736,0,0,0,4.992-2.286V55.8391q-1.56446-.3615-3.849-.662a45.752,45.752,0,0,0-5.776-.301q-7.941,0-12.152,5.235-4.215,5.232-4.212,13.777"/><path class="cls-4" d="M698.51367,75.8128a39.52832,39.52832,0,0,1,2.465-14.559,30.53885,30.53885,0,0,1,6.559-10.408,27.144,27.144,0,0,1,9.384-6.258,29.1,29.1,0,0,1,10.83-2.105q12.99453,0,20.276,8.062,7.27954,8.0625,7.281,24.065c0,.803-.023,1.705-.062,2.707q-.063,1.5075-.181,2.707h-41.512q.6,7.5825,5.355,11.732,4.752,4.152,13.777,4.152a45.24684,45.24684,0,0,0,9.687-.963,39.81388,39.81388,0,0,0,6.918-2.046l1.925,11.913a22.95563,22.95563,0,0,1-3.309,1.263,46.60079,46.60079,0,0,1-4.81305,1.204q-2.70594.54-5.836.901a55.30424,55.30424,0,0,1-6.37695.363,38.60844,38.60844,0,0,1-14.44-2.468,26.854,26.854,0,0,1-10.106-6.859,28.05062,28.05062,0,0,1-5.897-10.347,42.20851,42.20851,0,0,1-1.92395-13.056m42.234-6.498a19.16414,19.16414,0,0,0-.843-5.716,13.75409,13.75409,0,0,0-2.467-4.691,11.67276,11.67276,0,0,0-3.97-3.129,12.67284,12.67284,0,0,0-5.595-1.143,13.03125,13.03125,0,0,0-5.89606,1.263,13.45434,13.45434,0,0,0-4.272,3.309,15.15818,15.15818,0,0,0-2.708,4.692,25.3269,25.3269,0,0,0-1.323,5.415Z"/></g><g class="cls-5"><rect class="cls-6" x="5.87906" y="20.75308" width="109.57485" height="109.57485" transform="translate(-12.19581 11.68226) rotate(-10)"/></g><g class="cls-7"><rect class="cls-8" x="47.76253" y="34.18994" width="47.74693" height="51.20111" transform="translate(-15.9621 91.93383) rotate(-59.99999)"/></g><g class="cls-9"><rect class="cls-10" x="45.81029" y="66.37375" width="51.65141" height="49.8325" transform="translate(-40.60058 61.81915) rotate(-37.16596)"/></g><g class="cls-11"><rect class="cls-12" x="29.227" y="44.04101" width="40.938" height="45.305"/></g><g class="cls-3"><polygon class="cls-4" points="70.165 75.54 60.666 61.735 29.228 107.04 48.493 107.04 70.165 75.54"/><g class="cls-13"><g class="cls-14"><polygon class="cls-15" points="60.666 61.735 48.856 72.327 51.167 75.54 60.666 61.735"/></g></g><polygon class="cls-4" points="756.554 19.054 756.554 21.855 751.08 21.855 751.08 36.862 747.819 36.862 747.819 21.855 742.345 21.855 742.345 19.054 756.554 19.054"/><path class="cls-4" d="M763.5553,19.0541q.56543.9765,1.26,2.39.69452,1.41449,1.414,2.968.7185,1.5555,1.426,3.16.705,1.608,1.298,2.969.59106-1.36051,1.285-2.968.69451-1.605,1.412-3.16.7185-1.55548,1.414-2.968.69452-1.413,1.258-2.391h2.918q.23692,1.9545.44494,4.15.21,2.199.379,4.497.171,2.301.314,4.626.14391,2.32652.248,4.536h-3.186q-.10346-3.10951-.248-6.399-.14547-3.288-.433-6.372-.282.591-.667,1.413-.387.822-.822,1.785-.43652.96452-.887,1.993-.45144,1.0275-.874,1.99-.423.96451-.784,1.8-.36.834-.617,1.425l-2.414-.001q-.258-.5895-.618-1.438-.36008-.849-.783-1.812-.42453-.963-.875-1.992-.44851-1.02748-.885-1.978-.43651-.951-.823-1.786c-.258-.556-.479-1.023-.668-1.4q-.28959,3.0825-.431,6.373-.144,3.288-.249,6.398h-3.187q.10492-2.211.249-4.574.144-2.364.315-4.69.168-2.325.378-4.509.20856-2.1855.446-4.035Z"/></g></g></g></g></svg>