<svg xmlns="http://www.w3.org/2000/svg" xmlns:xlink="http://www.w3.org/1999/xlink" viewBox="0 0 540 147.1" preserveAspectRatio="xMinYMin"><defs><style>.cls-1{isolation:isolate;}.cls-2{fill:#004e74;}.cls-3{fill:#00a04d;}.cls-4{fill:url(#linear-gradient);}.cls-5{fill:url(#linear-gradient-2);}.cls-6{fill:url(#linear-gradient-3);}.cls-7{fill:url(#linear-gradient-4);}.cls-8{fill:#fff;}.cls-9{fill:#010101;opacity:0.1;mix-blend-mode:multiply;}</style><linearGradient id="linear-gradient" x1="34.66" y1="78.48" x2="93.52" y2="68.1" gradientUnits="userSpaceOnUse"><stop offset="0" stop-color="#0097dc"/><stop offset="0.44" stop-color="#0073a8"/><stop offset="0.81" stop-color="#005882"/><stop offset="1" stop-color="#004e74"/></linearGradient><linearGradient id="linear-gradient-2" x1="77.39" y1="52.14" x2="63.53" y2="76.15" gradientUnits="userSpaceOnUse"><stop offset="0.06" stop-color="#a6ce39"/><stop offset="0.97" stop-color="#00b04c"/></linearGradient><linearGradient id="linear-gradient-3" x1="74.75" y1="88.2" x2="63.29" y2="73.09" xlink:href="#linear-gradient-2"/><linearGradient id="linear-gradient-4" x1="49.57" y1="68.15" x2="67.07" y2="68.15" gradientUnits="userSpaceOnUse"><stop offset="0.06" stop-color="#fff"/><stop offset="0.97" stop-color="#d1d3d4"/></linearGradient></defs><title>AvidXchange-PrimaryMark4Color</title><g class="cls-1"><g id="Layer_3" data-name="Layer 3" transform="translate(-75,-72),scale(2.05,2.05)"><path class="cls-2" d="M115.11,54.09a20.68,20.68,0,0,1,7.06,1,11.27,11.27,0,0,1,4.58,2.94,11,11,0,0,1,2.45,4.58,22.41,22.41,0,0,1,.73,5.9V90.71q-2,.42-5.91,1a60.42,60.42,0,0,1-8.91.59,26.73,26.73,0,0,1-6-.63,12.61,12.61,0,0,1-4.65-2,9.53,9.53,0,0,1-3-3.63,12.59,12.59,0,0,1-1.08-5.52,10.66,10.66,0,0,1,1.22-5.31,10,10,0,0,1,3.32-3.53,14.36,14.36,0,0,1,4.86-2,27.39,27.39,0,0,1,5.77-.59,26.16,26.16,0,0,1,2.93.17,27.42,27.42,0,0,1,3.28.59v-1.4a11,11,0,0,0-.35-2.79,5.82,5.82,0,0,0-1.22-2.34,5.75,5.75,0,0,0-2.31-1.57,10,10,0,0,0-3.6-.56,31.91,31.91,0,0,0-5.38.42,23.57,23.57,0,0,0-4,1l-1-6.85a33.38,33.38,0,0,1,4.68-1.12A36.71,36.71,0,0,1,115.11,54.09Zm.7,31.52a31.46,31.46,0,0,0,5.94-.42V75.83a16.59,16.59,0,0,0-2-.42,18.93,18.93,0,0,0-2.93-.21,19.53,19.53,0,0,0-2.83.21,8.85,8.85,0,0,0-2.59.77,4.7,4.7,0,0,0-1.85,1.57,4.39,4.39,0,0,0-.7,2.55q0,3,1.89,4.16A9.73,9.73,0,0,0,115.81,85.61Z"/><path class="cls-2" d="M146,91.55q-3.51-7.2-7.19-16.53a209.12,209.12,0,0,1-6.7-20h9q.77,3.08,1.79,6.6t2.18,7.06q1.16,3.53,2.38,6.85t2.28,6q1.05-2.65,2.25-6t2.35-6.85q1.16-3.53,2.21-7.06t1.82-6.6h8.74a209.13,209.13,0,0,1-6.7,20q-3.68,9.33-7.19,16.53Z"/><path class="cls-2" d="M180.66,45.83a4.85,4.85,0,0,1-1.54,3.77,5.22,5.22,0,0,1-3.63,1.4,5.31,5.31,0,0,1-3.7-1.4,4.85,4.85,0,0,1-1.54-3.77A4.93,4.93,0,0,1,171.78,42a5.31,5.31,0,0,1,3.7-1.4,5.23,5.23,0,0,1,3.63,1.4A4.94,4.94,0,0,1,180.66,45.83Zm-.91,45.72h-8.46V55h8.46Z"/><path class="cls-2" d="M217.9,90.43a50.05,50.05,0,0,1-6.32,1.4,49.11,49.11,0,0,1-8,.63,21.33,21.33,0,0,1-7.76-1.33A16.14,16.14,0,0,1,190,87.32a16.75,16.75,0,0,1-3.7-6A22.92,22.92,0,0,1,185,73.38a26.72,26.72,0,0,1,1.08-7.86,17.2,17.2,0,0,1,3.18-6,14.17,14.17,0,0,1,5.1-3.88,16.58,16.58,0,0,1,6.92-1.36,15.82,15.82,0,0,1,4.68.63,21,21,0,0,1,3.49,1.4V38l8.45-1.4ZM193.66,73.17q0,5.59,2.66,8.77a9,9,0,0,0,7.34,3.18,29,29,0,0,0,3.46-.17,23.2,23.2,0,0,0,2.34-.38v-21a13.17,13.17,0,0,0-3-1.43,11.62,11.62,0,0,0-3.95-.66q-4.61,0-6.74,3.14T193.66,73.17Z"/><path class="cls-3" d="M240.4,66.19,248.16,55H257L244.77,72.51q3.84,4.83,7.37,9.76a80.17,80.17,0,0,1,5.81,9.28h-9.21a28.41,28.41,0,0,0-1.64-2.82q-1-1.54-2.15-3.21t-2.39-3.3q-1.25-1.63-2.43-3.08a69.62,69.62,0,0,0-4.81,6.3q-2.35,3.45-3.89,6.11h-8.62a43.65,43.65,0,0,1,2.54-4.43q1.51-2.33,3.24-4.76t3.56-4.86q1.83-2.43,3.63-4.62L223.35,55h9.29Z"/><path class="cls-3" d="M258.86,73.31a22.42,22.42,0,0,1,1.26-7.58,18,18,0,0,1,3.6-6.11,16.51,16.51,0,0,1,5.7-4.05A18.65,18.65,0,0,1,277,54.09,25.59,25.59,0,0,1,286.74,56l-1.82,6.92a19.22,19.22,0,0,0-3.32-1,17.86,17.86,0,0,0-3.95-.42q-5,0-7.55,3.11t-2.59,8.77q0,5.45,2.45,8.63t8.25,3.18a21.68,21.68,0,0,0,4.26-.42,20,20,0,0,0,3.63-1l1.19,7a17.58,17.58,0,0,1-4.23,1.26,30.11,30.11,0,0,1-5.84.56A21.19,21.19,0,0,1,269.09,91a15.42,15.42,0,0,1-5.73-4A16.48,16.48,0,0,1,260,81,25.18,25.18,0,0,1,258.86,73.31Z"/><path class="cls-3" d="M292.47,91.55V38l8.46-1.4v18.8a22.72,22.72,0,0,1,3.25-.84,19.79,19.79,0,0,1,3.67-.35,18.91,18.91,0,0,1,7.3,1.22,11.51,11.51,0,0,1,4.65,3.42,13.35,13.35,0,0,1,2.48,5.28A29.55,29.55,0,0,1,323,71V91.55h-8.45V72.33a27.86,27.86,0,0,0-.38-5A8.88,8.88,0,0,0,312.91,64a5.05,5.05,0,0,0-2.34-1.89,9.74,9.74,0,0,0-3.63-.59,17.46,17.46,0,0,0-3.42.35,23.76,23.76,0,0,0-2.59.63V91.55Z"/><path class="cls-3" d="M342.5,54.09a20.68,20.68,0,0,1,7.06,1,11.27,11.27,0,0,1,4.58,2.94,11,11,0,0,1,2.45,4.58,22.41,22.41,0,0,1,.73,5.9V90.71q-2,.42-5.91,1a60.42,60.42,0,0,1-8.91.59,26.73,26.73,0,0,1-6-.63,12.62,12.62,0,0,1-4.65-2,9.53,9.53,0,0,1-3-3.63,12.59,12.59,0,0,1-1.08-5.52A10.66,10.66,0,0,1,329,75.2a10,10,0,0,1,3.32-3.53,14.37,14.37,0,0,1,4.86-2,27.39,27.39,0,0,1,5.77-.59,26.16,26.16,0,0,1,2.94.17,27.42,27.42,0,0,1,3.28.59v-1.4a11,11,0,0,0-.35-2.79,5.82,5.82,0,0,0-1.22-2.34,5.75,5.75,0,0,0-2.31-1.57,10,10,0,0,0-3.6-.56,31.91,31.91,0,0,0-5.38.42,23.61,23.61,0,0,0-4,1l-1-6.85a33.4,33.4,0,0,1,4.68-1.12A36.71,36.71,0,0,1,342.5,54.09Zm.7,31.52a31.46,31.46,0,0,0,5.94-.42V75.83a16.59,16.59,0,0,0-2-.42,18.93,18.93,0,0,0-2.93-.21,19.53,19.53,0,0,0-2.83.21,8.85,8.85,0,0,0-2.59.77,4.7,4.7,0,0,0-1.85,1.57,4.39,4.39,0,0,0-.7,2.55q0,3,1.89,4.16A9.73,9.73,0,0,0,343.2,85.61Z"/><path class="cls-3" d="M363.46,56.19a56.81,56.81,0,0,1,6.36-1.33,54.83,54.83,0,0,1,8.67-.63A20,20,0,0,1,386,55.46a11.66,11.66,0,0,1,4.79,3.42,13.08,13.08,0,0,1,2.52,5.31A29.66,29.66,0,0,1,394,71V91.55h-8.46V72.33a27.86,27.86,0,0,0-.38-5A8.87,8.87,0,0,0,383.91,64a5,5,0,0,0-2.38-1.89,10,10,0,0,0-3.67-.59,28.2,28.2,0,0,0-3.35.21q-1.75.21-2.59.35V91.55h-8.46Z"/><path class="cls-3" d="M430,87.85q0,8.73-4.44,12.79T412,104.69a37.74,37.74,0,0,1-6.53-.56,36.66,36.66,0,0,1-5.76-1.47l1.54-7.2a26.26,26.26,0,0,0,4.93,1.47,30.14,30.14,0,0,0,6,.56q5.1,0,7.27-2.1t2.17-6.22v-1.4A22,22,0,0,1,418.22,89a16.18,16.18,0,0,1-4.72.63,17.63,17.63,0,0,1-6.39-1.12,13.4,13.4,0,0,1-5-3.28,15,15,0,0,1-3.21-5.42,22.43,22.43,0,0,1-1.15-7.51A21.26,21.26,0,0,1,399,65a15.68,15.68,0,0,1,3.56-5.73,16.29,16.29,0,0,1,5.7-3.7,20.58,20.58,0,0,1,7.62-1.33,46.72,46.72,0,0,1,7.83.63q3.7.63,6.29,1.33ZM406.44,72.33q0,5.38,2.34,7.86a7.93,7.93,0,0,0,6,2.48,12.64,12.64,0,0,0,3.81-.56,10.86,10.86,0,0,0,2.9-1.33V61.85q-.91-.21-2.24-.38a26.58,26.58,0,0,0-3.35-.17,8.53,8.53,0,0,0-7.06,3A12.37,12.37,0,0,0,406.44,72.33Z"/><path class="cls-3" d="M434.53,73.45A23,23,0,0,1,436,65a17.74,17.74,0,0,1,3.81-6,15.75,15.75,0,0,1,5.45-3.63,16.9,16.9,0,0,1,6.29-1.22q7.55,0,11.78,4.68t4.23,14q0,.7,0,1.57t-.11,1.57H443.27a9.64,9.64,0,0,0,3.11,6.81q2.76,2.41,8,2.41a26.26,26.26,0,0,0,5.63-.56,23.1,23.1,0,0,0,4-1.19l1.12,6.92a13.28,13.28,0,0,1-1.92.73,27.08,27.08,0,0,1-2.8.7q-1.57.31-3.39.52a32.19,32.19,0,0,1-3.7.21A22.42,22.42,0,0,1,444.95,91a15.6,15.6,0,0,1-5.87-4,16.3,16.3,0,0,1-3.42-6A24.51,24.51,0,0,1,434.53,73.45Zm24.53-3.77a11.14,11.14,0,0,0-.49-3.32,8,8,0,0,0-1.43-2.72,6.77,6.77,0,0,0-2.31-1.82,7.35,7.35,0,0,0-3.25-.66,7.56,7.56,0,0,0-3.42.73,7.81,7.81,0,0,0-2.48,1.92,8.8,8.8,0,0,0-1.57,2.72,14.71,14.71,0,0,0-.77,3.14Z"/><rect class="cls-4" x="36.62" y="45.83" width="54.93" height="54.93" rx="12.21" ry="12.21"/><polygon class="cls-5" points="58.57 73.29 69.61 73.29 82.35 55 71.16 55 58.57 73.29"/><polygon class="cls-6" points="58.57 73.29 69.61 73.29 82.35 91.59 71.16 91.59 58.57 73.29"/><polygon class="cls-7" points="69.61 73.29 64.09 81.31 45.83 55 57.02 55 69.61 73.29"/><polygon class="cls-8" points="69.61 73.29 64.09 65.27 45.83 91.59 57.02 91.59 69.61 73.29"/><polygon class="cls-9" points="64.09 65.27 57.23 71.43 58.57 73.29 64.09 65.27"/><path class="cls-3" d="M468.24,40.49v1.63h-3.18v8.72h-1.89V42.11H460V40.49Z"/><path class="cls-3" d="M472.31,40.49q.33.57.73,1.39t.82,1.72q.42.9.83,1.84l.75,1.72.75-1.72q.4-.93.82-1.84t.82-1.72q.4-.82.73-1.39h1.69q.14,1.13.26,2.41t.22,2.61q.1,1.34.18,2.69t.14,2.63h-1.85q-.06-1.81-.14-3.72t-.25-3.7l-.39.82-.48,1-.51,1.16-.51,1.16-.46,1-.36.83h-1.4l-.36-.84-.46-1.05-.51-1.16-.51-1.15-.48-1q-.22-.48-.39-.81-.17,1.79-.25,3.7t-.14,3.72h-1.85q.06-1.28.14-2.66t.18-2.72q.1-1.35.22-2.62t.26-2.34Z"/></g></g></svg>