<svg id="Layer_1" data-name="Layer 1" xmlns="http://www.w3.org/2000/svg" viewBox="0 0 512 512"><defs><style>.cls-1{fill:#0684c9;}</style></defs><title>linkedin</title><path class="cls-1" d="M256,0C114.63672,0,0,114.63672,0,256S114.63672,512,256,512,512,397.36328,512,256,397.36328,0,256,0ZM181.60938,387H119.26172V199.42578h62.34766ZM150.4375,173.81251h-.40625c-20.92187,0-34.45313-14.40235-34.45313-32.40235,0-18.40625,13.94532-32.41016,35.27344-32.41016s34.45313,14.00391,34.85938,32.41016C185.71094,159.41016,172.17969,173.81251,150.4375,173.81251ZM406.42188,387H344.082V286.65234c0-25.21875-9.02734-42.418-31.58594-42.418-17.22265,0-27.48047,11.60156-31.98828,22.80078-1.64843,4.00781-2.05078,9.60937-2.05078,15.21484V387H216.11328s.81641-169.97656,0-187.57422H278.457v26.5586c8.28516-12.78126,23.10938-30.96094,56.1875-30.96094,41.01953,0,71.77735,26.80859,71.77735,84.42187Z"/></svg>