<svg id="Layer_1" data-name="Layer 1" xmlns="http://www.w3.org/2000/svg" viewBox="0 0 720 720"><defs><style>.cls-1{fill:#0f84c7;}</style></defs><title>twitter</title><path class="cls-1" d="M358.958,268.989a91.012,91.012,0,1,0,91.012,91.012A91.01674,91.01674,0,0,0,358.958,268.989Zm36.19029,72.4586c.03868.80037.05574,1.60014.05574,2.41128,0,24.67449-18.78146,53.12712-53.12768,53.12712a52.83917,52.83917,0,0,1-28.62435-8.38789,39.397,39.397,0,0,0,4.455.25536,37.41588,37.41588,0,0,0,23.18645-7.988,18.69745,18.69745,0,0,1-17.4367-12.96523,19.18487,19.18487,0,0,0,3.51016.3333,18.82467,18.82467,0,0,0,4.91635-.65525,18.6998,18.6998,0,0,1-14.976-18.30938v-.23322a18.64284,18.64284,0,0,0,8.46013,2.33336,18.69637,18.69637,0,0,1-5.777-24.93046A52.99239,52.99239,0,0,0,358.27478,345.947a18.68746,18.68746,0,0,1,31.81836-17.03115,37.2583,37.2583,0,0,0,11.86-4.533,18.73337,18.73337,0,0,1-8.21042,10.33217,37.26335,37.26335,0,0,0,10.72128-2.93286A37.86528,37.86528,0,0,1,395.14829,341.4476Z"/></svg>